<?xml version="1.0" encoding="UTF-8"?>
<!DOCTYPE svg PUBLIC "-//W3C//DTD SVG 1.1//EN" "http://www.w3.org/Graphics/SVG/1.1/DTD/svg11.dtd">
<!-- Creator: CorelDRAW X7 -->
<svg xmlns="http://www.w3.org/2000/svg" xml:space="preserve" width="11in" height="8.5in" version="1.1" style="shape-rendering:geometricPrecision; text-rendering:geometricPrecision; image-rendering:optimizeQuality; fill-rule:evenodd; clip-rule:evenodd"
viewBox="0 0 11000 8500"
 xmlns:xlink="http://www.w3.org/1999/xlink">
 <defs>
  <style type="text/css">
   <![CDATA[
    .fil0 {fill:#FEFEFE}
    .fil2 {fill:#D2D3D5}
    .fil1 {fill:#282829}
   ]]>
  </style>
 </defs>
 <g id="Layer_x0020_1">
  <metadata id="CorelCorpID_0Corel-Layer"/>
  <rect class="fil0" width="11000" height="8500"/>
  <path class="fil1" d="M570 5569l0 240 675 -10 -691 503 0 224 1183 0 0 -240 -721 10 699 -507 0 -220 -1145 0zm1263 0l0 957 1064 0 0 -230 -778 0 0 -152 733 0 0 -210 -733 0 0 -139 772 0 0 -226 -1058 0zm1155 957l291 0 0 -243 412 0c120,0 142,3 162,26 23,25 28,59 28,167l0 50 287 0 0 -89c6,-221 -20,-264 -168,-281 58,-9 85,-19 112,-40 52,-39 66,-93 66,-235 0,-167 -21,-230 -94,-274 -62,-38 -62,-38 -392,-38l-704 0 0 957zm291 -482l0 -235 410 0c132,1 137,1 157,10 30,13 41,40 41,105 0,60 -8,88 -31,103 -20,14 -20,14 -167,17l-410 0zm1642 -489c-400,0 -489,10 -562,66 -73,56 -95,153 -95,420 0,281 20,376 95,433 73,56 162,66 565,66 395,0 486,-10 559,-66 73,-56 95,-152 95,-427 0,-274 -22,-370 -95,-426 -73,-56 -162,-66 -562,-66zm0 248c267,0 298,4 331,43 26,32 34,86 34,228 0,116 -10,158 -43,184 -38,28 -86,34 -319,34 -241,0 -287,-4 -326,-34 -34,-28 -43,-66 -43,-185 0,-122 6,-177 23,-210 29,-56 56,-60 343,-60z"/>
  <path class="fil1" d="M5808 6525l0 -956 605 0c159,3 255,7 287,11 47,6 85,26 116,60 37,42 56,117 56,225 0,81 -10,142 -29,184 -13,28 -34,52 -63,72 -29,20 -61,32 -96,37 -36,4 -127,7 -271,7l-477 0 0 360 -128 0zm128 -472l477 0c114,0 187,-2 220,-6 53,-7 86,-31 99,-74 6,-23 9,-57 9,-104 0,-55 -3,-93 -9,-115 -12,-37 -44,-58 -96,-64 -35,-4 -109,-7 -223,-9l-477 0 0 372zm1639 -486c189,0 319,9 392,25 52,13 93,41 121,84 34,55 51,180 51,376 0,119 -6,213 -19,282 -17,95 -70,152 -158,171 -71,15 -177,23 -318,23 -82,0 -169,-1 -262,-4 -93,-2 -153,-4 -182,-7 -47,-4 -85,-12 -112,-23 -28,-10 -52,-27 -73,-50 -26,-26 -42,-58 -51,-94 -14,-59 -21,-159 -21,-302 0,-155 11,-264 32,-328 25,-75 82,-120 172,-133 85,-13 227,-20 428,-20zm-89 115c-125,0 -220,5 -284,16 -51,8 -84,27 -98,57 -20,45 -30,139 -30,282 0,117 4,202 12,257 7,44 26,73 55,87 29,14 84,22 163,26 95,4 179,6 253,6 157,0 270,-6 339,-19 29,-5 51,-15 66,-30 16,-16 26,-38 32,-67 11,-58 16,-141 16,-249 0,-47 -2,-98 -4,-151 -3,-53 -6,-89 -10,-108 -10,-52 -46,-83 -109,-93 -45,-7 -95,-11 -151,-12 -72,-1 -156,-2 -250,-2zm1390 -115c189,0 320,9 392,25 53,13 93,41 121,84 34,55 51,180 51,376 0,119 -6,213 -19,282 -17,95 -69,152 -157,171 -72,15 -178,23 -318,23 -82,0 -169,-1 -263,-4 -93,-2 -153,-4 -181,-7 -48,-4 -85,-12 -113,-23 -27,-10 -52,-27 -73,-50 -25,-26 -42,-58 -51,-94 -14,-59 -21,-159 -21,-302 0,-155 11,-264 32,-328 25,-75 83,-120 173,-133 84,-13 227,-20 427,-20zm-89 115c-125,0 -219,5 -283,16 -52,8 -85,27 -98,57 -21,45 -31,139 -31,282 0,117 4,202 13,257 7,44 25,73 55,87 29,14 83,22 162,26 95,4 179,6 253,6 158,0 271,-6 339,-19 29,-5 51,-15 67,-30 15,-16 25,-38 31,-67 11,-58 16,-141 16,-249 0,-47 -1,-98 -4,-151 -3,-53 -6,-89 -10,-108 -9,-52 -45,-83 -108,-93 -46,-7 -96,-11 -151,-12 -73,-1 -157,-2 -251,-2zm777 -113l128 0 0 844 754 0 0 112 -882 0 0 -956z"/>
  <path class="fil1" d="M944 7296l0 -282 179 0c47,1 75,2 85,3 14,2 25,8 34,18 11,12 16,34 16,66 0,24 -2,42 -8,55 -4,8 -10,15 -19,21 -8,6 -18,9 -28,11 -11,1 -37,2 -80,2l-141 0 0 106 -38 0zm38 -139l141 0c33,0 55,-1 65,-2 16,-2 25,-9 29,-22 2,-7 3,-17 3,-30 0,-17 -1,-28 -3,-35 -3,-10 -13,-17 -28,-19 -11,-1 -32,-2 -66,-2l-141 0 0 110zm314 139l0 -282 176 0c47,0 78,1 91,3 23,3 40,14 49,32 6,12 8,28 8,49 0,20 -1,35 -4,44 -4,17 -19,27 -42,32 12,2 22,7 29,14 4,4 6,9 8,13 2,5 3,12 4,20 0,5 0,17 0,35l0 40 -37 0 0 -27c0,-23 -1,-39 -2,-48 -3,-17 -13,-28 -30,-31 -8,-1 -19,-2 -32,-2l-42 0 -139 0 0 108 -37 0zm37 -141l139 0c36,0 61,-1 73,-2 19,-2 30,-10 33,-23 3,-9 4,-20 4,-32 0,-21 -5,-35 -14,-41 -6,-5 -14,-7 -25,-8 -16,-2 -40,-2 -71,-2l-139 0 0 108zm333 -141l38 0 0 282 -38 0 0 -282zm64 0l42 0 139 248 14 0 136 -248 42 0 -156 282 -58 0 -159 -282zm659 282l-33 -59 -228 0 -34 59 -43 0 160 -282 61 0 159 282 -42 0zm-51 -93l-88 -156 -15 0 -89 156 192 0zm403 -3l37 0c-1,25 -3,43 -5,53 -4,21 -18,34 -42,38 -19,4 -52,6 -100,6 -64,0 -107,-2 -129,-7 -25,-4 -40,-19 -46,-42 -5,-19 -8,-49 -8,-88 0,-45 3,-78 9,-99 6,-24 23,-38 51,-42 26,-4 65,-6 116,-6 49,0 84,3 105,7 16,4 28,12 36,25 5,8 8,21 9,39 0,2 0,10 0,23l-35 0c0,-4 0,-8 0,-9 0,-15 -1,-25 -4,-31 -5,-8 -17,-13 -35,-16 -17,-3 -43,-4 -78,-4 -40,0 -72,2 -95,4 -16,2 -26,7 -30,15 -7,13 -10,39 -10,79 0,11 0,26 1,45 1,18 2,30 3,37 2,16 9,26 20,29 13,5 48,7 104,7 53,0 87,-2 104,-6 11,-3 17,-9 20,-19 1,-5 2,-18 2,-38zm52 -186l51 0 136 135 132 -135 53 0 -166 167 0 115 -38 0 0 -115 -168 -167zm485 194l37 0c0,3 0,5 0,6 0,17 1,27 3,32 2,5 6,9 12,12 5,2 14,4 25,5 15,2 43,2 84,2 39,0 67,-2 86,-6 18,-4 27,-18 27,-42 0,-13 -2,-24 -6,-30 -4,-6 -10,-10 -20,-12 -11,-2 -29,-3 -55,-3 -5,0 -36,0 -91,0 -34,0 -57,-4 -72,-13 -12,-7 -21,-17 -25,-29 -4,-11 -6,-23 -6,-37 0,-25 8,-44 22,-55 9,-8 19,-13 29,-15 27,-7 67,-10 119,-10 39,0 68,3 89,9 9,3 18,7 25,13 7,7 12,14 15,21 4,10 5,23 6,42l-38 0c0,-3 0,-4 0,-5 0,-14 -2,-23 -5,-27 -5,-9 -18,-15 -39,-18 -14,-2 -33,-3 -55,-3 -46,0 -79,2 -99,7 -14,3 -22,10 -26,20 -3,5 -4,12 -4,21 0,13 2,22 5,28 5,9 25,15 59,17 9,1 50,1 124,1 27,0 47,4 58,11 19,12 28,33 28,64 0,20 -3,37 -10,48 -7,12 -18,20 -32,24 -17,5 -36,8 -58,9 -26,1 -52,2 -80,2 -30,0 -53,-1 -67,-2 -15,-2 -27,-6 -36,-10 -9,-5 -16,-11 -21,-19 -5,-10 -8,-24 -8,-42 0,-3 0,-8 0,-16zm538 -195c56,0 94,3 116,8 15,3 27,12 36,24 10,17 15,53 15,111 0,36 -2,63 -6,84 -5,28 -21,45 -46,50 -22,5 -53,7 -94,7 -25,0 -50,0 -78,-1 -27,-1 -45,-1 -54,-2 -14,-1 -25,-4 -33,-7 -8,-3 -15,-8 -22,-15 -7,-8 -12,-17 -14,-27 -5,-18 -7,-48 -7,-90 0,-45 3,-78 10,-96 7,-23 24,-36 51,-40 25,-4 67,-6 126,-6zm-26 34c-37,0 -65,2 -84,5 -15,2 -25,8 -29,17 -6,13 -9,41 -9,83 0,35 1,60 4,76 2,13 7,22 16,26 9,4 25,6 48,7 28,2 53,2 75,2 46,0 80,-2 100,-5 8,-2 15,-5 19,-9 5,-5 8,-12 10,-20 3,-17 5,-42 5,-74 0,-14 -1,-29 -2,-44 -1,-16 -1,-27 -3,-32 -2,-16 -13,-25 -32,-28 -13,-2 -28,-3 -44,-3 -22,-1 -46,-1 -74,-1zm240 -33l38 0 0 249 222 0 0 33 -260 0 0 -282zm291 0l37 0 0 139c0,41 1,65 2,74 1,16 8,25 19,29 14,5 47,7 100,7 51,0 85,-1 105,-4 16,-3 26,-10 29,-20 2,-8 3,-24 4,-47 0,-3 0,-16 0,-39l0 -139 38 0 0 139c-1,37 -1,63 -2,78 -2,17 -7,31 -16,41 -8,10 -20,16 -36,19 -14,3 -31,4 -53,5l-60 1c-50,-1 -81,-1 -94,-3 -14,-1 -25,-3 -33,-6 -8,-3 -15,-8 -21,-14 -9,-11 -14,-23 -16,-38 -2,-15 -3,-43 -3,-83l0 -139zm362 0l321 0 0 33 -141 0 0 249 -38 0 0 -249 -142 0 0 -33zm353 0l38 0 0 282 -38 0 0 -282zm272 -1c55,0 94,3 115,8 16,3 28,12 36,24 10,17 15,53 15,111 0,36 -2,63 -5,84 -5,28 -21,45 -47,50 -21,5 -52,7 -94,7 -24,0 -50,0 -77,-1 -28,-1 -46,-1 -54,-2 -14,-1 -25,-4 -33,-7 -8,-3 -16,-8 -22,-15 -7,-8 -12,-17 -15,-27 -4,-18 -6,-48 -6,-90 0,-45 3,-78 9,-96 8,-23 25,-36 51,-40 25,-4 67,-6 127,-6zm-27 34c-37,0 -65,2 -83,5 -16,2 -25,8 -29,17 -7,13 -10,41 -10,83 0,35 2,60 4,76 2,13 8,22 17,26 8,4 24,6 47,7 28,2 53,2 75,2 47,0 80,-2 100,-5 9,-2 15,-5 20,-9 5,-5 8,-12 9,-20 4,-17 5,-42 5,-74 0,-14 0,-29 -1,-44 -1,-16 -2,-27 -3,-32 -3,-16 -14,-25 -32,-28 -13,-2 -28,-3 -45,-3 -21,-1 -46,-1 -74,-1zm241 -33l62 0 247 248 9 0 0 -248 38 0 0 282 -64 0 -247 -247 -8 0 0 247 -37 0 0 -282zm504 282l0 -282 265 0 0 33 -227 0 0 90 217 0 0 33 -217 0 0 126 -38 0zm480 -283c56,0 95,3 116,8 16,3 28,12 36,24 10,17 15,53 15,111 0,36 -2,63 -6,84 -5,28 -20,45 -46,50 -21,5 -53,7 -94,7 -24,0 -50,0 -78,-1 -27,-1 -45,-1 -53,-2 -14,-1 -26,-4 -34,-7 -8,-3 -15,-8 -21,-15 -8,-8 -13,-17 -15,-27 -4,-18 -6,-48 -6,-90 0,-45 3,-78 9,-96 7,-23 24,-36 51,-40 25,-4 67,-6 126,-6zm-26 34c-37,0 -65,2 -84,5 -15,2 -25,8 -29,17 -6,13 -9,41 -9,83 0,35 1,60 4,76 2,13 7,22 16,26 9,4 25,6 48,7 28,2 53,2 75,2 46,0 80,-2 100,-5 9,-2 15,-5 20,-9 4,-5 7,-12 9,-20 3,-17 5,-42 5,-74 0,-14 -1,-29 -2,-44 0,-16 -1,-27 -2,-32 -3,-16 -14,-25 -32,-28 -14,-2 -29,-3 -45,-3 -22,-1 -46,-1 -74,-1zm240 249l0 -282 176 0c48,0 78,1 92,3 23,3 39,14 48,32 6,12 9,28 9,49 0,20 -1,35 -4,44 -5,17 -19,27 -43,32 12,2 22,7 29,14 4,4 7,9 9,13 1,5 3,12 3,20 1,5 1,17 1,35l0 40 -38 0 0 -27c0,-23 0,-39 -1,-48 -3,-17 -13,-28 -31,-31 -8,-1 -18,-2 -31,-2l-43 0 -138 0 0 108 -38 0zm38 -141l138 0c37,0 61,-1 74,-2 18,-2 29,-10 33,-23 2,-9 4,-20 4,-32 0,-21 -5,-35 -14,-41 -6,-5 -15,-7 -26,-8 -16,-2 -39,-2 -71,-2l-138 0 0 108zm428 141l0 -282 277 0 0 33 -239 0 0 86 229 0 0 33 -229 0 0 97 239 0 0 33 -277 0zm294 -282l320 0 0 33 -141 0 0 249 -38 0 0 -249 -141 0 0 -33zm352 0l38 0 0 119 259 0 0 -119 38 0 0 282 -38 0 0 -130 -259 0 0 130 -38 0 0 -282zm388 282l0 -282 277 0 0 33 -239 0 0 86 229 0 0 33 -229 0 0 97 239 0 0 33 -277 0zm315 0l0 -282 176 0c48,0 78,1 91,3 24,3 40,14 49,32 6,12 9,28 9,49 0,20 -2,35 -4,44 -5,17 -19,27 -43,32 12,2 22,7 29,14 4,4 7,9 8,13 2,5 3,12 4,20 0,5 1,17 1,35l0 40 -38 0 0 -27c0,-23 -1,-39 -1,-48 -3,-17 -13,-28 -31,-31 -8,-1 -18,-2 -31,-2l-43 0 -138 0 0 108 -38 0zm38 -141l138 0c36,0 61,-1 74,-2 18,-2 29,-10 33,-23 2,-9 3,-20 3,-32 0,-21 -4,-35 -13,-41 -6,-5 -15,-7 -26,-8 -16,-2 -40,-2 -71,-2l-138 0 0 108zm333 141l0 -282 276 0 0 33 -239 0 0 86 229 0 0 33 -229 0 0 97 240 0 0 33 -277 0zm311 -282l38 0 0 139c0,41 0,65 1,74 2,16 8,25 19,29 14,5 48,7 101,7 50,0 85,-1 104,-4 16,-3 26,-10 29,-20 2,-8 4,-24 4,-47 0,-3 0,-16 0,-39l0 -139 38 0 0 139c0,37 -1,63 -2,78 -2,17 -7,31 -15,41 -9,10 -21,16 -37,19 -13,3 -31,4 -53,5l-60 1c-50,-1 -81,-1 -94,-3 -14,-1 -25,-3 -33,-6 -8,-3 -15,-8 -20,-14 -10,-11 -15,-23 -17,-38 -2,-15 -3,-43 -3,-83l0 -139zm384 0l75 0 153 239 151 -239 76 0 0 282 -38 0 0 -247 -16 0 -157 247 -31 0 -159 -247 -16 0 0 247 -38 0 0 -282z"/>
  <path class="fil2" d="M5500 2352l0 0c-74,1 -106,133 -95,394 -44,-237 -138,-374 -281,-411 36,68 54,103 54,103 -181,-108 -368,-137 -560,-87 50,-96 240,-97 412,-34 -99,-98 -275,-117 -527,-58 -112,38 -197,109 -254,213 6,-324 9,-486 9,-486 624,119 935,178 935,178 71,64 106,96 106,96 45,-45 67,-68 67,-68l134 8 134 -8c0,0 22,23 67,68 0,0 35,-32 106,-96 0,0 311,-59 935,-178 0,0 3,162 9,486 -57,-104 -142,-175 -254,-213 -252,-59 -428,-40 -527,58 172,-63 362,-62 412,34 -192,-50 -379,-21 -560,87 0,0 18,-35 54,-103 -143,37 -237,174 -280,411 10,-261 -22,-393 -96,-394z"/>
  <path class="fil1" d="M6987 2005c11,18 21,37 31,56l0 779 0 778c-10,19 -20,38 -31,56l-728 393 -759 409 -759 -409 -728 -393c-11,-18 -21,-37 -31,-56l0 -778 0 -779c10,-19 20,-38 31,-56l728 -393 759 -409 759 409 728 393zm-1323 288c24,-22 37,-33 37,-33 47,28 70,42 70,42 199,-170 488,-192 867,-66 -361,-74 -639,-37 -834,111 -99,8 -146,-10 -140,-54zm-328 0c-24,-22 -37,-33 -37,-33 -46,28 -70,42 -70,42 -199,-170 -488,-192 -867,-66 361,-74 639,-37 834,111 99,8 146,-10 140,-54zm164 943c-200,208 -547,70 -738,-101 43,-17 65,-26 65,-26 102,134 258,80 421,60 -98,-129 -147,-204 -148,-224 5,-73 31,-118 75,-136 -33,63 -42,112 -28,146 58,60 117,75 176,44 -39,-96 -25,-158 44,-186 -47,146 -8,220 117,224l5 -1c4,0 7,1 11,1 4,0 7,-1 11,-1l5 1c125,-4 164,-78 117,-224 69,28 83,90 44,186 59,31 118,16 176,-44 14,-34 5,-83 -28,-146 45,18 70,63 75,136 -1,20 -50,95 -148,224 163,20 319,74 421,-60 0,0 22,9 65,26 -191,171 -538,309 -738,101zm-36 1002c-83,-21 -162,-44 -236,-69 67,29 139,58 214,87l116 0c75,-29 147,-58 214,-87 -74,25 -153,48 -236,69 -11,21 -61,21 -72,0zm-1128 -813c-83,-212 -102,-461 -55,-745 159,403 412,467 759,190 -74,139 -200,218 -380,238 128,164 297,253 506,268 197,-10 308,6 333,48 -116,-21 -232,-21 -348,0 -280,-28 -480,-133 -602,-316 55,200 140,363 254,490 -201,-203 -327,-356 -380,-459 249,602 591,902 1026,902l0 -5c-92,-188 -102,-334 -30,-438 -121,23 -221,2 -300,-63 169,36 295,41 380,15l1 11 2 -11c84,26 211,21 379,-15 -79,65 -179,86 -300,63 72,104 62,250 -30,438l0 5c435,0 777,-300 1026,-902 -53,103 -179,256 -379,459 114,-127 198,-290 253,-490 -122,183 -322,288 -601,316 -116,-21 -232,-21 -348,0 24,-42 135,-58 332,-48 210,-15 378,-104 506,-268 -180,-20 -306,-99 -380,-238 347,277 600,213 760,-190 46,284 27,533 -56,745 159,-342 155,-786 51,-1408l-1215 209 -1215 -209c-104,622 -108,1066 51,1408z"/>
 </g>
</svg>
