<?xml version="1.0" encoding="UTF-8"?>
<!DOCTYPE svg PUBLIC "-//W3C//DTD SVG 1.1//EN" "http://www.w3.org/Graphics/SVG/1.1/DTD/svg11.dtd">
<!-- Creator: CorelDRAW X7 -->
<svg xmlns="http://www.w3.org/2000/svg" xml:space="preserve" width="11in" height="8.5in" version="1.1" style="shape-rendering:geometricPrecision; text-rendering:geometricPrecision; image-rendering:optimizeQuality; fill-rule:evenodd; clip-rule:evenodd"
viewBox="0 0 11000 8500"
 xmlns:xlink="http://www.w3.org/1999/xlink">
 <defs>
  <style type="text/css">
   <![CDATA[
    .fil0 {fill:#FEFEFE}
    .fil1 {fill:#D2D3D5}
    .fil2 {fill:#282829}
   ]]>
  </style>
 </defs>
 <g id="Layer_x0020_1">
  <metadata id="CorelCorpID_0Corel-Layer"/>
  <rect class="fil0" width="11000" height="8500"/>
  <path class="fil1" d="M5500 3240l0 0c-154,3 -220,276 -198,817 -90,-491 -284,-776 -580,-853 74,143 111,214 111,214 -374,-223 -761,-283 -1160,-179 105,-198 497,-200 853,-71 -204,-203 -568,-243 -1089,-119 -234,78 -409,224 -527,439 13,-670 19,-1004 19,-1004 1291,244 1936,366 1936,366 146,134 219,201 219,201 93,-94 139,-141 139,-141l277 16 277 -16c0,0 46,47 139,141 0,0 73,-67 219,-201 0,0 645,-122 1936,-366 0,0 6,334 19,1004 -118,-215 -293,-361 -527,-439 -521,-124 -885,-84 -1089,119 356,-129 748,-127 853,71 -399,-104 -786,-44 -1160,179 0,0 37,-71 111,-214 -296,77 -490,362 -580,853 22,-541 -44,-814 -198,-817z"/>
  <path class="fil2" d="M8579 2522c22,38 43,77 63,117l0 1611 0 1611c-20,40 -41,79 -63,117l-1508 813 -1571 847 -1571 -847 -1508 -813c-22,-38 -43,-77 -63,-117l0 -1611 0 -1611c20,-40 41,-79 63,-117l1508 -813 1571 -847 1571 847 1508 813zm-2740 597c51,-45 77,-68 77,-68 96,57 145,85 145,85 412,-350 1010,-396 1795,-136 -748,-154 -1324,-77 -1727,230 -204,17 -301,-20 -290,-111zm-678 0c-51,-45 -77,-68 -77,-68 -96,57 -145,85 -145,85 -412,-350 -1010,-396 -1795,-136 748,-154 1324,-77 1727,230 204,17 301,-20 290,-111zm339 1952c-414,429 -1132,145 -1528,-209 90,-36 135,-53 135,-53 211,276 534,164 872,122 -203,-266 -306,-420 -307,-462 11,-151 63,-246 155,-283 -68,132 -87,233 -57,303 119,125 241,155 364,90 -82,-198 -52,-327 90,-384 -96,302 -16,456 242,463l11 -1c8,0 15,1 23,1 8,0 15,-1 23,-1l11 1c258,-7 338,-161 242,-463 142,57 172,186 90,384 123,65 245,35 364,-90 30,-70 11,-171 -57,-303 92,37 144,132 155,283 -1,42 -104,196 -307,462 338,42 661,154 872,-122 0,0 45,17 135,53 -396,354 -1114,638 -1528,209zm-75 2074c-171,-43 -334,-90 -488,-143 139,61 287,121 443,180l240 0c156,-59 304,-119 443,-180 -154,53 -317,100 -488,143 -24,43 -126,43 -150,0zm-2335 -1683c-172,-440 -211,-954 -115,-1541 331,833 855,964 1572,393 -152,286 -414,450 -786,491 264,339 614,525 1048,556 408,-22 637,11 688,99 -240,-44 -481,-44 -721,0 -578,-58 -993,-276 -1244,-655 113,414 288,752 524,1015 -414,-420 -676,-737 -786,-950 516,1246 1224,1868 2124,1867l0 -9c-189,-390 -210,-692 -61,-908 -252,48 -459,5 -622,-131 349,74 611,85 786,33l3 22 3 -22c175,52 437,41 786,-33 -163,136 -370,179 -622,131 149,216 128,518 -61,908l0 9c900,1 1608,-621 2124,-1867 -110,213 -372,530 -786,950 236,-263 411,-601 524,-1015 -251,379 -666,597 -1244,655 -241,-44 -481,-44 -721,0 51,-88 280,-121 688,-99 434,-31 784,-217 1048,-556 -372,-41 -634,-205 -786,-491 717,571 1241,440 1572,-393 96,587 57,1101 -115,1541 328,-708 320,-1627 105,-2916l-2515 433 -2515 -433c-215,1289 -223,2208 105,2916z"/>
 </g>
</svg>
