<?xml version="1.0" encoding="UTF-8"?>
<!DOCTYPE svg PUBLIC "-//W3C//DTD SVG 1.1//EN" "http://www.w3.org/Graphics/SVG/1.1/DTD/svg11.dtd">
<!-- Creator: CorelDRAW X7 -->
<svg xmlns="http://www.w3.org/2000/svg" xml:space="preserve" width="11in" height="8.5in" version="1.1" style="shape-rendering:geometricPrecision; text-rendering:geometricPrecision; image-rendering:optimizeQuality; fill-rule:evenodd; clip-rule:evenodd"
viewBox="0 0 11000 8500"
 xmlns:xlink="http://www.w3.org/1999/xlink">
 <defs>
  <style type="text/css">
   <![CDATA[
    .fil1 {fill:#FEFEFE}
    .fil2 {fill:#E6E7E8}
    .fil3 {fill:#D2D3D5}
    .fil0 {fill:black}
   ]]>
  </style>
 </defs>
 <g id="Layer_x0020_1">
  <metadata id="CorelCorpID_0Corel-Layer"/>
  <rect class="fil0" width="11000" height="8500"/>
  <path class="fil1" d="M5500 1831c852,0 1542,690 1542,1541 0,852 -690,1542 -1542,1542 -851,0 -1542,-690 -1542,-1542 0,-851 691,-1541 1542,-1541z"/>
  <path class="fil2" d="M1853 5392l0 177 500 -8 -511 372 0 166 875 0 0 -177 -534 7 518 -375 0 -162 -848 0zm935 0l0 707 786 0 0 -170 -574 0 0 -112 542 0 0 -156 -542 0 0 -103 570 0 0 -166 -782 0zm854 707l216 0 0 -179 304 0c89,0 105,2 120,19 17,18 21,43 21,123l0 37 212 0 0 -66c4,-163 -15,-195 -124,-208 42,-6 62,-14 83,-29 38,-29 48,-69 48,-174 0,-123 -15,-170 -70,-203 -45,-27 -45,-27 -289,-27l-521 0 0 707zm216 -357l0 -173 303 0c97,1 101,1 115,7 23,10 31,30 31,77 0,45 -6,66 -23,77 -15,10 -15,10 -123,12l-303 0zm1214 -361c-296,0 -362,7 -416,49 -54,41 -70,113 -70,310 0,208 15,278 70,321 54,41 120,48 418,48 292,0 359,-7 413,-48 54,-42 70,-113 70,-316 0,-203 -16,-274 -70,-315 -54,-42 -119,-49 -415,-49zm0 183c197,0 220,4 245,32 19,23 25,64 25,169 0,86 -7,116 -32,135 -28,22 -63,26 -236,26 -178,0 -212,-3 -241,-26 -25,-20 -32,-48 -32,-136 0,-90 5,-131 17,-155 21,-41 42,-45 254,-45z"/>
  <path class="fil2" d="M5728 6098l0 -707 447 0c118,2 189,5 213,8 34,5 63,20 85,45 28,31 42,86 42,166 0,60 -7,105 -22,136 -9,21 -25,39 -46,53 -22,15 -45,24 -71,27 -27,4 -94,6 -201,6l-353 0 0 266 -94 0zm94 -349l353 0c84,0 138,-2 163,-4 39,-5 64,-24 73,-55 5,-17 7,-42 7,-77 0,-41 -2,-69 -7,-85 -9,-27 -32,-43 -71,-48 -26,-2 -80,-5 -165,-6l-353 0 0 275zm1213 -359c139,0 236,6 289,18 39,10 69,31 90,63 25,40 38,132 38,277 0,88 -5,158 -14,209 -13,70 -52,112 -117,126 -53,12 -131,17 -235,17 -61,0 -125,-1 -194,-2 -69,-2 -113,-4 -134,-5 -35,-4 -63,-10 -84,-17 -20,-8 -38,-21 -54,-38 -19,-19 -31,-42 -37,-69 -11,-44 -16,-118 -16,-223 0,-115 8,-196 24,-243 18,-56 61,-89 127,-99 63,-9 168,-14 317,-14zm-66 85c-93,0 -163,4 -210,12 -38,6 -62,20 -72,41 -16,34 -23,104 -23,209 0,87 3,150 9,190 5,33 19,54 41,65 21,10 62,16 120,19 70,3 133,5 187,5 117,0 200,-5 251,-14 21,-4 38,-12 49,-23 11,-12 19,-28 23,-49 8,-43 12,-105 12,-185 0,-35 -1,-72 -3,-111 -2,-39 -4,-66 -7,-80 -7,-39 -34,-62 -80,-69 -34,-5 -71,-8 -112,-9 -54,-1 -116,-1 -185,-1zm1028 -85c140,0 236,6 290,18 39,10 69,31 89,63 26,40 38,132 38,277 0,88 -4,158 -14,209 -12,70 -51,112 -116,126 -53,12 -132,17 -236,17 -60,0 -125,-1 -193,-2 -69,-2 -114,-4 -135,-5 -35,-4 -63,-10 -83,-17 -20,-8 -39,-21 -54,-38 -19,-19 -31,-42 -38,-69 -10,-44 -15,-118 -15,-223 0,-115 8,-196 23,-243 19,-56 61,-89 128,-99 62,-9 168,-14 316,-14zm-66 85c-92,0 -162,4 -209,12 -39,6 -63,20 -73,41 -15,34 -23,104 -23,209 0,87 4,150 10,190 5,33 18,54 41,65 21,10 61,16 120,19 70,3 132,5 187,5 116,0 200,-5 250,-14 22,-4 38,-12 50,-23 11,-12 19,-28 23,-49 8,-43 12,-105 12,-185 0,-35 -1,-72 -3,-111 -2,-39 -5,-66 -8,-80 -7,-39 -33,-62 -80,-69 -33,-5 -71,-8 -112,-9 -53,-1 -115,-1 -185,-1zm575 -84l94 0 0 625 558 0 0 82 -652 0 0 -707z"/>
  <path class="fil2" d="M2130 6669l0 -209 133 0c34,0 55,1 62,2 11,1 19,6 26,13 8,9 12,26 12,49 0,18 -2,32 -6,41 -3,6 -8,11 -14,15 -7,5 -14,7 -21,8 -8,1 -28,2 -59,2l-105 0 0 79 -28 0zm28 -103l105 0c24,-1 40,-1 48,-2 11,-1 18,-7 21,-16 2,-5 2,-12 2,-23 0,-12 0,-20 -2,-25 -2,-8 -9,-13 -21,-14 -7,-1 -23,-1 -48,-2l-105 0 0 82zm232 103l0 -209 131 0c35,0 57,1 67,2 17,3 29,10 36,24 4,9 7,21 7,36 0,15 -1,26 -3,33 -4,12 -14,20 -32,23 9,2 16,5 22,11 2,3 4,6 6,10 1,3 2,8 2,14 1,4 1,12 1,26l0 30 -28 0 0 -20c0,-17 0,-29 -1,-36 -2,-13 -10,-21 -23,-23 -6,-1 -13,-1 -23,-1l-31 -1 -103 0 0 81 -28 0zm28 -105l103 0c26,0 45,-1 54,-1 14,-2 22,-8 25,-18 1,-6 2,-14 2,-23 0,-16 -3,-26 -10,-31 -4,-3 -11,-5 -19,-5 -12,-1 -29,-2 -52,-2l-103 0 0 80zm247 -104l27 0 0 209 -27 0 0 -209zm47 0l30 0 104 183 10 0 101 -183 31 0 -116 209 -43 0 -117 -209zm487 209l-24 -45 -169 0 -25 45 -32 0 119 -209 44 0 118 209 -31 0zm-38 -69l-65 -116 -11 0 -66 116 142 0zm299 -3l27 0c-1,19 -2,32 -4,39 -3,16 -13,25 -31,29 -14,3 -39,4 -74,4 -47,0 -79,-1 -95,-5 -19,-3 -30,-14 -34,-31 -4,-14 -6,-36 -6,-65 0,-34 2,-58 6,-73 5,-18 18,-28 38,-31 19,-3 48,-5 86,-5 36,0 62,2 78,6 12,2 21,8 26,18 4,6 6,15 7,28 0,2 0,8 0,18l-26 0c0,-4 0,-6 0,-7 0,-11 -1,-18 -3,-23 -4,-6 -12,-10 -26,-12 -13,-2 -32,-3 -57,-3 -30,0 -54,1 -71,4 -11,1 -19,5 -22,11 -5,9 -8,28 -8,58 0,8 1,19 1,33 1,13 2,23 2,28 2,11 7,19 15,21 10,4 36,5 77,5 39,0 65,-1 77,-5 8,-1 13,-6 15,-13 1,-4 1,-14 2,-29zm38 -137l37 0 101 100 98 -100 39 0 -123 123 0 86 -28 0 0 -86 -124 -123zm359 143l27 0c0,2 0,4 0,5 0,12 1,20 2,24 2,3 5,6 9,8 4,2 10,3 19,4 10,1 31,2 62,2 28,0 49,-2 63,-5 14,-3 20,-13 20,-31 0,-10 -1,-17 -4,-22 -3,-5 -8,-8 -15,-9 -8,-1 -22,-2 -41,-2 -4,0 -26,0 -67,0 -25,0 -42,-3 -53,-10 -9,-5 -15,-12 -19,-21 -2,-8 -4,-17 -4,-28 0,-19 5,-32 16,-41 7,-5 14,-9 22,-11 20,-4 49,-7 87,-7 29,0 51,3 66,7 7,2 13,5 19,10 5,4 9,10 11,15 3,7 4,17 4,31l-28 0c0,-2 0,-3 0,-4 0,-10 -1,-17 -3,-20 -4,-6 -14,-11 -29,-13 -11,-1 -24,-2 -41,-2 -34,0 -58,2 -73,5 -10,2 -17,7 -20,15 -1,4 -2,9 -2,15 0,10 1,17 3,21 4,7 19,11 44,13 7,0 37,0 92,1 20,0 34,2 42,7 15,9 22,25 22,48 0,15 -3,27 -8,36 -5,8 -13,14 -24,17 -12,4 -27,6 -43,7 -19,1 -38,1 -58,1 -23,0 -40,0 -50,-2 -11,-1 -20,-3 -27,-7 -7,-3 -12,-8 -15,-14 -4,-7 -7,-17 -7,-31 0,-2 1,-6 1,-12zm398 -144c41,0 69,2 85,6 12,3 21,9 27,18 7,12 11,39 11,82 0,26 -2,47 -4,62 -4,21 -16,33 -35,37 -15,4 -39,5 -69,5 -18,0 -37,0 -58,0 -20,-1 -33,-1 -39,-2 -11,-1 -19,-3 -25,-5 -6,-2 -11,-6 -16,-11 -5,-6 -9,-13 -11,-21 -3,-12 -5,-34 -5,-66 0,-33 3,-57 7,-71 6,-17 18,-26 38,-29 19,-3 50,-5 94,-5zm-20 25c-27,0 -48,2 -62,4 -11,2 -18,6 -21,12 -5,10 -7,31 -7,62 0,26 1,44 3,56 1,10 5,16 12,19 6,3 18,5 35,6 21,1 39,1 56,1 34,0 59,-1 74,-4 6,-1 11,-3 14,-7 4,-3 6,-8 7,-14 2,-13 4,-31 4,-55 0,-10 -1,-21 -1,-33 -1,-11 -2,-19 -2,-23 -3,-12 -10,-18 -24,-21 -10,-1 -21,-2 -33,-2 -16,0 -34,-1 -55,-1zm178 -24l28 0 0 184 164 0 0 25 -192 0 0 -209zm215 0l28 0 0 102c0,31 0,49 1,55 1,12 5,19 14,22 10,3 35,5 74,5 37,0 63,-1 77,-3 12,-2 20,-7 22,-15 2,-6 2,-17 3,-34 0,-2 0,-12 0,-30l0 -102 28 0 0 102c0,28 -1,48 -2,58 -1,13 -5,23 -11,30 -6,8 -15,13 -27,15 -10,2 -23,3 -39,3l-44 1c-37,0 -61,-1 -70,-2 -11,-1 -19,-2 -25,-5 -6,-2 -11,-5 -15,-10 -7,-8 -11,-17 -12,-28 -1,-11 -2,-31 -2,-62l0 -102zm268 0l237 0 0 24 -104 0 0 185 -28 0 0 -185 -105 0 0 -24zm261 0l28 0 0 209 -28 0 0 -209zm201 -1c41,0 70,2 85,6 12,3 21,9 27,18 7,12 11,39 11,82 0,26 -1,47 -4,62 -4,21 -15,33 -35,37 -15,4 -38,5 -69,5 -18,0 -37,0 -57,0 -21,-1 -34,-1 -40,-2 -10,-1 -19,-3 -25,-5 -6,-2 -11,-6 -16,-11 -5,-6 -9,-13 -11,-21 -3,-12 -4,-34 -4,-66 0,-33 2,-57 7,-71 5,-17 18,-26 37,-29 19,-3 50,-5 94,-5zm-20 25c-27,0 -48,2 -62,4 -11,2 -18,6 -21,12 -5,10 -7,31 -7,62 0,26 1,44 3,56 1,10 6,16 12,19 6,3 18,5 35,6 21,1 40,1 56,1 34,0 59,-1 74,-4 6,-1 11,-3 14,-7 4,-3 6,-8 7,-14 3,-13 4,-31 4,-55 0,-10 -1,-21 -1,-33 -1,-11 -1,-19 -2,-23 -2,-12 -10,-18 -24,-21 -10,-1 -21,-2 -33,-2 -16,0 -34,-1 -55,-1zm178 -24l46 0 183 183 7 0 0 -183 27 0 0 209 -47 0 -182 -183 -6 0 0 183 -28 0 0 -209zm373 209l0 -209 196 0 0 24 -168 0 0 67 161 0 0 24 -161 0 0 94 -28 0zm355 -210c42,0 70,2 86,6 11,3 20,9 26,18 8,12 12,39 12,82 0,26 -2,47 -5,62 -3,21 -15,33 -34,37 -16,4 -39,5 -70,5 -17,0 -36,0 -57,0 -20,-1 -33,-1 -39,-2 -11,-1 -19,-3 -25,-5 -6,-2 -11,-6 -16,-11 -6,-6 -9,-13 -11,-21 -3,-12 -5,-34 -5,-66 0,-33 3,-57 7,-71 6,-17 18,-26 38,-29 18,-3 50,-5 93,-5zm-19 25c-27,0 -48,2 -62,4 -11,2 -19,6 -21,12 -5,10 -7,31 -7,62 0,26 1,44 3,56 1,10 5,16 12,19 6,3 18,5 35,6 21,1 39,1 55,1 35,0 59,-1 74,-4 7,-1 12,-3 15,-7 3,-3 6,-8 7,-14 2,-13 3,-31 3,-55 0,-10 0,-21 -1,-33 0,-11 -1,-19 -2,-23 -2,-12 -10,-18 -23,-21 -10,-1 -21,-2 -33,-2 -16,0 -35,-1 -55,-1zm178 185l0 -209 130 0c35,0 58,1 67,2 18,3 30,10 36,24 5,9 7,21 7,36 0,15 -1,26 -3,33 -4,12 -14,20 -32,23 9,2 16,5 22,11 3,3 5,6 6,10 1,3 2,8 3,14 0,4 0,12 0,26l0 30 -28 0 0 -20c0,-17 0,-29 -1,-36 -2,-13 -9,-21 -22,-23 -6,-1 -14,-1 -24,-1l-31 -1 -103 0 0 81 -27 0zm27 -105l103 0c27,0 45,-1 54,-1 14,-2 22,-8 25,-18 1,-6 2,-14 2,-23 0,-16 -3,-26 -10,-31 -4,-3 -10,-5 -19,-5 -11,-1 -29,-2 -52,-2l-103 0 0 80zm317 105l0 -209 205 0 0 24 -177 0 0 64 169 0 0 24 -169 0 0 72 177 0 0 25 -205 0zm217 -209l237 0 0 24 -104 0 0 185 -28 0 0 -185 -105 0 0 -24zm261 0l28 0 0 88 192 0 0 -88 28 0 0 209 -28 0 0 -97 -192 0 0 97 -28 0 0 -209zm287 209l0 -209 205 0 0 24 -177 0 0 64 169 0 0 24 -169 0 0 72 177 0 0 25 -205 0zm233 0l0 -209 130 0c35,0 58,1 68,2 17,3 29,10 35,24 5,9 7,21 7,36 0,15 -1,26 -3,33 -4,12 -14,20 -31,23 8,2 16,5 21,11 3,3 5,6 6,10 1,3 2,8 3,14 0,4 0,12 0,26l0 30 -28 0 0 -20c0,-17 0,-29 -1,-36 -2,-13 -9,-21 -22,-23 -6,-1 -14,-1 -23,-1l-32 -1 -102 0 0 81 -28 0zm28 -105l102 0c27,0 45,-1 54,-1 14,-2 22,-8 25,-18 2,-6 3,-14 3,-23 0,-16 -4,-26 -10,-31 -5,-3 -11,-5 -20,-5 -11,-1 -29,-2 -52,-2l-102 0 0 80zm246 105l0 -209 205 0 0 24 -177 0 0 64 169 0 0 24 -169 0 0 72 177 0 0 25 -205 0zm230 -209l28 0 0 102c0,31 1,49 1,55 1,12 6,19 14,22 11,3 36,5 75,5 37,0 63,-1 77,-3 12,-2 19,-7 21,-15 2,-6 3,-17 3,-34 0,-2 0,-12 0,-30l0 -102 28 0 0 102c0,28 0,48 -1,58 -1,13 -5,23 -11,30 -7,8 -16,13 -27,15 -10,2 -24,3 -40,3l-44 1c-37,0 -60,-1 -70,-2 -10,-1 -18,-2 -24,-5 -6,-2 -11,-5 -15,-10 -7,-8 -11,-17 -12,-28 -2,-11 -2,-31 -3,-62l0 -102zm284 0l56 0 113 177 112 -177 56 0 0 209 -28 0 0 -183 -12 0 -116 183 -23 0 -118 -183 -12 0 0 183 -28 0 0 -209z"/>
  <path class="fil3" d="M5500 3012l0 0c-55,1 -79,98 -71,292 -32,-176 -101,-278 -207,-305 27,51 40,76 40,76 -134,-80 -272,-101 -415,-64 38,-71 178,-71 305,-25 -73,-73 -203,-87 -389,-43 -83,28 -146,80 -188,157 4,-239 7,-359 7,-359 461,88 691,131 691,131 52,48 79,72 79,72 33,-33 49,-50 49,-50l99 5 99 -5c0,0 16,17 50,50 0,0 26,-24 78,-72 0,0 230,-43 691,-131 0,0 3,120 7,359 -42,-77 -104,-129 -188,-157 -186,-44 -316,-30 -389,43 127,-46 267,-46 305,25 -143,-37 -281,-16 -415,64 0,0 13,-25 40,-76 -106,27 -175,129 -207,305 8,-194 -16,-291 -71,-292z"/>
  <path class="fil0" d="M6600 2755c8,14 15,28 23,42l0 575 0 576c-8,14 -15,28 -23,42l-539 290 -561 303 -561 -303 -539 -290c-8,-14 -15,-28 -23,-42l0 -576 0 -575c8,-14 15,-28 23,-42l539 -290 561 -303 561 303 539 290zm-979 213c18,-16 28,-24 28,-24 34,20 51,31 51,31 148,-126 361,-142 642,-49 -268,-55 -473,-28 -617,82 -73,6 -108,-7 -104,-40zm-242 0c-18,-16 -27,-24 -27,-24 -35,20 -52,31 -52,31 -147,-126 -361,-142 -642,-49 268,-55 473,-28 617,82 73,6 108,-7 104,-40zm121 698c-148,153 -404,52 -546,-75 32,-13 48,-19 48,-19 76,99 191,59 312,44 -73,-95 -109,-150 -110,-165 4,-54 23,-88 56,-101 -25,47 -32,83 -21,108 43,44 86,55 130,32 -29,-71 -18,-117 33,-137 -35,108 -6,163 86,165l4 0c3,0 5,0 8,0 3,0 6,0 8,0l4 0c92,-2 121,-57 86,-165 51,20 62,66 33,137 44,23 87,12 130,-32 11,-25 4,-61 -21,-108 33,13 52,47 56,101 -1,15 -37,70 -110,165 121,15 236,55 312,-44 0,0 16,6 48,19 -142,127 -398,228 -546,75zm-27 741c-61,-16 -119,-33 -174,-51 50,21 102,43 158,64l86 0c56,-21 108,-43 158,-64 -55,18 -113,35 -174,51 -9,15 -45,15 -54,0zm-834 -602c-61,-157 -75,-340 -41,-550 118,298 305,344 562,140 -55,102 -148,161 -281,176 94,121 219,187 374,199 146,-8 228,3 246,35 -86,-16 -172,-16 -257,0 -207,-21 -355,-99 -445,-234 40,148 103,268 187,362 -148,-150 -241,-263 -281,-339 185,445 438,667 759,667l0 -3c-68,-139 -75,-248 -22,-325 -89,18 -164,2 -222,-46 125,26 219,30 281,11l1 8 1 -8c63,19 156,15 281,-11 -58,48 -132,64 -222,46 53,77 46,186 -22,325l0 3c322,0 574,-222 759,-667 -39,76 -133,189 -281,339 84,-94 147,-214 187,-362 -90,135 -238,213 -444,234 -86,-16 -172,-16 -258,0 18,-32 100,-43 246,-35 155,-12 280,-78 374,-199 -133,-15 -226,-74 -281,-176 257,204 444,158 562,-140 34,210 21,393 -41,550 117,-253 114,-581 38,-1041l-899 154 -898 -154c-77,460 -80,788 37,1041z"/>
 </g>
</svg>
