<?xml version="1.0" encoding="UTF-8"?>
<!DOCTYPE svg PUBLIC "-//W3C//DTD SVG 1.1//EN" "http://www.w3.org/Graphics/SVG/1.1/DTD/svg11.dtd">
<!-- Creator: CorelDRAW X7 -->
<svg xmlns="http://www.w3.org/2000/svg" xml:space="preserve" width="11in" height="8.5in" version="1.1" style="shape-rendering:geometricPrecision; text-rendering:geometricPrecision; image-rendering:optimizeQuality; fill-rule:evenodd; clip-rule:evenodd"
viewBox="0 0 11000 8500"
 xmlns:xlink="http://www.w3.org/1999/xlink">
 <defs>
  <style type="text/css">
   <![CDATA[
    .fil1 {fill:#FEFEFE}
    .fil2 {fill:#D2D3D5}
    .fil0 {fill:black}
   ]]>
  </style>
 </defs>
 <g id="Layer_x0020_1">
  <metadata id="CorelCorpID_0Corel-Layer"/>
  <rect class="fil0" width="11000" height="8500"/>
  <path class="fil1" d="M5500 1939c1276,0 2311,1035 2311,2311 0,1276 -1035,2311 -2311,2311 -1276,0 -2311,-1035 -2311,-2311 0,-1276 1035,-2311 2311,-2311z"/>
  <path class="fil2" d="M5500 3709l0 0c-82,2 -118,148 -106,438 -48,-263 -152,-416 -310,-457 39,76 59,114 59,114 -201,-119 -408,-151 -621,-96 56,-106 266,-107 457,-37 -110,-109 -304,-131 -584,-64 -125,41 -219,120 -282,235 7,-359 10,-538 10,-538 692,131 1037,197 1037,197 78,71 117,107 117,107 50,-50 75,-75 75,-75l148 8 148 -8c0,0 25,25 75,75 0,0 39,-36 117,-107 0,0 345,-66 1037,-197 0,0 3,179 10,538 -63,-115 -157,-194 -282,-235 -280,-67 -474,-45 -584,64 191,-70 401,-69 457,37 -213,-55 -420,-23 -621,96 0,0 20,-38 59,-114 -158,41 -262,194 -310,457 12,-290 -24,-436 -106,-438z"/>
  <path class="fil0" d="M7149 3324c11,21 23,42 34,63l0 863 0 863c-11,21 -23,42 -34,63l-808 435 -841 453 -841 -453 -808 -435c-11,-21 -23,-42 -34,-63l0 -863 0 -863c11,-21 23,-42 34,-63l808 -435 841 -453 841 453 808 435zm-1468 321c28,-25 42,-37 42,-37 51,30 77,46 77,46 221,-188 541,-213 961,-73 -400,-83 -708,-42 -924,123 -110,9 -161,-11 -156,-59zm-362 0c-28,-25 -42,-37 -42,-37 -51,30 -77,46 -77,46 -221,-188 -541,-213 -961,-73 400,-83 708,-42 924,123 110,9 161,-11 156,-59zm181 1044c-222,231 -606,78 -818,-111 48,-19 72,-29 72,-29 113,148 286,88 467,66 -109,-143 -164,-225 -165,-248 7,-81 34,-131 84,-151 -37,70 -47,124 -31,162 64,67 129,83 195,48 -44,-106 -28,-175 48,-206 -51,162 -8,245 130,248l6 0c4,0 8,0 12,0 4,0 8,0 12,0l6 0c138,-3 181,-86 130,-248 76,31 92,100 48,206 66,35 131,19 195,-48 16,-38 6,-92 -31,-162 50,20 77,70 84,151 -1,23 -56,105 -165,248 181,22 354,82 467,-66 0,0 24,10 72,29 -212,189 -596,342 -818,111zm-40 1111c-92,-23 -179,-48 -262,-76 75,32 154,64 238,96l128 0c84,-32 163,-64 238,-96 -83,28 -170,53 -262,76 -13,24 -67,24 -80,0zm-1250 -901c-93,-236 -113,-511 -62,-825 177,446 458,516 842,210 -82,153 -222,241 -421,263 141,182 328,281 561,298 218,-12 341,6 368,53 -128,-24 -257,-24 -385,0 -310,-31 -532,-148 -667,-351 61,222 154,403 281,544 -222,-225 -362,-395 -421,-509 276,667 655,1000 1137,1000l0 -5c-101,-209 -112,-371 -32,-486 -135,26 -246,2 -334,-70 187,39 328,45 421,17l2 12 2 -12c93,28 234,22 421,-17 -88,72 -199,96 -334,70 80,115 69,277 -32,486l0 5c482,0 861,-333 1137,-1000 -59,114 -199,284 -421,509 127,-141 220,-322 281,-544 -135,203 -357,320 -666,351 -129,-24 -258,-24 -386,0 27,-47 150,-65 368,-53 233,-17 420,-116 561,-298 -199,-22 -339,-110 -421,-263 384,306 665,236 842,-210 51,314 31,589 -62,825 176,-379 172,-871 57,-1561l-1347 231 -1347 -231c-115,690 -119,1182 57,1561z"/>
 </g>
</svg>
